<svg xmlns="http://www.w3.org/2000/svg" viewBox="0 0 100 60" role="img" aria-label="Stylized map of the United States">
  <defs>
    <linearGradient id="bg" x1="0" x2="1" y1="0" y2="1">
      <stop offset="0%" stop-color="#0f172a" />
      <stop offset="100%" stop-color="#111827" />
    </linearGradient>
    <filter id="shadow" x="-10%" y="-10%" width="120%" height="120%">
      <feDropShadow dx="0" dy="1.5" stdDeviation="2" flood-color="#1e40af" flood-opacity="0.4" />
    </filter>
  </defs>
  <rect width="100" height="60" fill="url(#bg)" rx="4" ry="4" />
  <g fill="#1e293b" stroke="#334155" stroke-width="0.4" filter="url(#shadow)">
    <path d="M5 42 L12 33 L20 30 L27 26 L37 24 L47 25 L57 27 L67 24 L78 27 L88 32 L92 37 L87 43 L78 46 L68 47 L58 49 L48 50 L38 48 L30 49 L20 52 L10 49 Z" />
    <path d="M8 47 L4 50 L6 53 L12 52 Z" />
    <path d="M82 52 L86 54 L84 56 L80 55 Z" />
  </g>
  <g stroke="#1e3a8a" stroke-width="0.2" opacity="0.45">
    <line x1="0" y1="10" x2="100" y2="10" />
    <line x1="0" y1="20" x2="100" y2="20" />
    <line x1="0" y1="30" x2="100" y2="30" />
    <line x1="0" y1="40" x2="100" y2="40" />
    <line x1="0" y1="50" x2="100" y2="50" />
    <line x1="10" y1="0" x2="10" y2="60" />
    <line x1="20" y1="0" x2="20" y2="60" />
    <line x1="30" y1="0" x2="30" y2="60" />
    <line x1="40" y1="0" x2="40" y2="60" />
    <line x1="50" y1="0" x2="50" y2="60" />
    <line x1="60" y1="0" x2="60" y2="60" />
    <line x1="70" y1="0" x2="70" y2="60" />
    <line x1="80" y1="0" x2="80" y2="60" />
    <line x1="90" y1="0" x2="90" y2="60" />
  </g>
</svg>
